<svg width="1280" height="1742" viewBox="0 0 1280 1742" fill="none" xmlns="http://www.w3.org/2000/svg">
<rect width="1280" height="1608" fill="url(#paint0_linear_57_2)"/>
<path d="M231.731 17.6317C353.624 39.3537 477.208 88.8854 535.005 198.398C592.665 307.651 568.044 439.525 512.673 549.957C461.314 652.39 366.281 719.25 256.844 753.17C141.047 789.062 9.47302 807.784 -88.4245 736.269C-186.564 664.577 -206.294 533.332 -210.387 411.851C-214.441 291.507 -200.286 163.509 -110.42 83.3791C-19.2156 2.05557 111.439 -3.80508 231.731 17.6317Z" fill="#E577A0"/>
<path d="M1099.73 974.632C1221.62 996.354 1345.21 1045.89 1403 1155.4C1460.66 1264.65 1436.04 1396.53 1380.67 1506.96C1329.31 1609.39 1234.28 1676.25 1124.84 1710.17C1009.05 1746.06 877.473 1764.78 779.575 1693.27C681.436 1621.58 661.706 1490.33 657.613 1368.85C653.559 1248.51 667.714 1120.51 757.58 1040.38C848.784 959.056 979.439 953.195 1099.73 974.632Z" fill="#5688DB"/>
<defs>
<linearGradient id="paint0_linear_57_2" x1="640" y1="0" x2="640" y2="1608" gradientUnits="userSpaceOnUse">
<stop stop-color="#E577A0"/>
<stop offset="1" stop-color="#5688DB"/>
</linearGradient>
</defs>
</svg>
